<svg width="24" height="25" viewBox="0 0 24 25" fill="none" xmlns="http://www.w3.org/2000/svg">
<g clip-path="url(#clip0_2927_10641)">
<rect x="23.8008" y="24.5" width="24" height="24" rx="8" transform="rotate(180 23.8008 24.5)" fill="#5A5F6C"/>
<circle cx="11.9995" cy="13.7056" r="6.44486" fill="white" fill-opacity="0.25"/>
<path d="M14.417 6.13965H12.6445V7.29199C13.9058 7.4173 15.06 7.90711 16.001 8.65332L16.9609 7.69434L17.417 8.15039L17.8721 8.60645L16.9258 9.55273C17.8725 10.6746 18.4443 12.1232 18.4443 13.7061L18.4355 14.0371C18.263 17.4423 15.448 20.1502 12 20.1504L11.668 20.1416C8.37248 19.9746 5.73046 17.3326 5.56348 14.0371L5.55469 13.7061C5.55469 10.3642 8.09862 7.61539 11.3555 7.29199V6.13965H9.58301V4.85059H14.417V6.13965ZM12 8.5498C9.15248 8.5498 6.84375 10.8585 6.84375 13.7061C6.844 16.5534 9.15263 18.8613 12 18.8613C14.8472 18.8611 17.155 16.5532 17.1553 13.7061C17.1553 10.8587 14.8473 8.55005 12 8.5498ZM14.417 11.2891L14.8721 11.7451L12.4561 14.1611L12.3545 14.2441C12.1045 14.409 11.7641 14.3811 11.5439 14.1611C11.2928 13.9095 11.2927 13.5016 11.5439 13.25L13.9609 10.833L14.417 11.2891Z" fill="white"/>
</g>
<defs>
<clipPath id="clip0_2927_10641">
<rect width="24" height="24" fill="white" transform="translate(0 0.5)"/>
</clipPath>
</defs>
</svg>
