<svg width="20" height="24" viewBox="0 0 20 24" fill="none" xmlns="http://www.w3.org/2000/svg">
<path d="M14.3332 5.94529C14.5479 5.94529 14.9139 5.97945 15.4312 6.04777C15.9484 6.11609 16.5145 6.31128 17.1293 6.63334C17.7539 6.94564 18.32 7.46777 18.8275 8.19974C18.7982 8.22901 18.6567 8.33637 18.4029 8.5218C18.1492 8.69747 17.8661 8.96098 17.5538 9.31232C17.2415 9.6539 16.9683 10.0931 16.734 10.6298C16.4998 11.1569 16.3827 11.7863 16.3827 12.5183C16.3827 13.3576 16.5291 14.0701 16.8219 14.6556C17.1244 15.2412 17.4709 15.7145 17.8613 16.0756C18.2614 16.427 18.6127 16.6856 18.9153 16.8515C19.2276 17.0174 19.3935 17.1053 19.413 17.115C19.4033 17.1541 19.2764 17.5005 19.0324 18.1544C18.7982 18.8083 18.4078 19.5354 17.8613 20.3357C17.3831 21.0286 16.8658 21.6678 16.3095 22.2534C15.763 22.839 15.1042 23.1318 14.3332 23.1318C13.816 23.1318 13.3914 23.0586 13.0596 22.9122C12.7278 22.756 12.3862 22.6047 12.0349 22.4583C11.6835 22.3022 11.2102 22.2241 10.6148 22.2241C10.039 22.2241 9.55594 22.3022 9.16556 22.4583C8.78494 22.6145 8.41896 22.7707 8.06762 22.9268C7.72604 23.083 7.32102 23.161 6.85256 23.161C6.14012 23.161 5.51552 22.878 4.97874 22.312C4.44197 21.7459 3.89056 21.0676 3.32451 20.2771C2.67062 19.3402 2.10945 18.1983 1.641 16.8515C1.1823 15.495 0.952954 14.1286 0.952954 12.7525C0.952954 11.2789 1.2311 10.0443 1.78739 9.04881C2.34368 8.04358 3.05612 7.28722 3.92472 6.77973C4.80307 6.26248 5.7107 6.00385 6.64762 6.00385C7.14535 6.00385 7.61381 6.08681 8.05298 6.25272C8.49216 6.40887 8.90206 6.5699 9.28268 6.73581C9.67306 6.90172 10.0244 6.98468 10.3367 6.98468C10.6392 6.98468 10.9906 6.89684 11.3907 6.72117C11.7909 6.5455 12.2398 6.37471 12.7375 6.2088C13.2353 6.03313 13.7672 5.94529 14.3332 5.94529ZM13.5281 4.08611C13.1474 4.54481 12.6692 4.93031 12.0934 5.24261C11.5176 5.54516 10.9711 5.69643 10.4538 5.69643C10.3465 5.69643 10.244 5.68667 10.1464 5.66715C10.1366 5.63787 10.1269 5.58419 10.1171 5.50612C10.1074 5.42804 10.1025 5.34509 10.1025 5.25725C10.1025 4.67168 10.2293 4.10563 10.4831 3.5591C10.7368 3.00281 11.0247 2.54411 11.3468 2.18301C11.7567 1.69504 12.274 1.29002 12.8986 0.967955C13.5232 0.645892 14.1185 0.475101 14.6846 0.455582C14.7138 0.582456 14.7285 0.733728 14.7285 0.909398C14.7285 1.49497 14.6162 2.0659 14.3918 2.62219C14.1673 3.16872 13.8794 3.65669 13.5281 4.08611Z" fill="#1E2023"/>
</svg>
