<svg width="28" height="28" viewBox="0 0 28 28" fill="none" xmlns="http://www.w3.org/2000/svg">
<g clip-path="url(#clip0_5602_19663)">
<path d="M16.7539 2.99902L17.7432 5.89941C17.9732 6.57407 18.6808 6.96104 19.373 6.79102L22.2705 6.0791L25.0361 10.7969L22.917 13.0703C22.4223 13.6011 22.4256 14.4257 22.9238 14.9531L25.0361 17.1895L22.2773 21.9072L19.3643 21.1797C18.671 21.0064 17.9597 21.3923 17.7285 22.0684L16.7344 24.9766H11.2793L10.3828 22.1025C10.1669 21.4108 9.45144 21.0055 8.74707 21.1758L5.71875 21.9072L2.9834 17.1895L4.9502 14.9062C5.3926 14.3929 5.39503 13.6344 4.95605 13.1182L2.9834 10.7969L5.71875 6.0791L8.67676 6.79395C9.37371 6.96224 10.0833 6.56606 10.3066 5.88477L11.2529 2.99902H16.7539ZM14.002 9.87598C11.7235 9.8762 9.87601 11.7234 9.87598 14.002C9.87598 16.2805 11.7235 18.1277 14.002 18.1279C16.2806 18.1279 18.1279 16.2806 18.1279 14.002C18.1279 11.7233 16.2806 9.87598 14.002 9.87598Z" fill="white"/>
</g>
<defs>
<clipPath id="clip0_5602_19663">
<rect width="28" height="28" fill="white"/>
</clipPath>
</defs>
</svg>
