<svg width="24" height="24" viewBox="0 0 24 24" fill="none" xmlns="http://www.w3.org/2000/svg">
<g clip-path="url(#clip0_2927_10599)">
<rect x="23.8008" y="24" width="24" height="24" rx="8" transform="rotate(180 23.8008 24)" fill="#5A5F6C"/>
<path d="M4.99133 15.0356L4.99122 9.62926C4.99122 9.26549 5.18875 8.93041 5.50704 8.75427L11.5094 5.43271C11.8104 5.26614 12.1759 5.26598 12.477 5.43229L18.4925 8.75445C18.8112 8.93045 19.0091 9.26575 19.0091 9.62981L19.0092 15.035C19.0092 15.4048 18.8052 15.7443 18.4788 15.9179L12.4631 19.1174C12.1693 19.2737 11.8169 19.2735 11.5232 19.117L5.521 15.9181C5.195 15.7444 4.99133 15.405 4.99133 15.0356Z" fill="white" fill-opacity="0.25" stroke="white" stroke-width="1.29"/>
<path d="M7.76562 10.7339L12.0874 13.0119M12.0874 13.0119L16.5466 10.7339M12.0874 13.0119V16.541" stroke="white" stroke-width="1.29"/>
</g>
<defs>
<clipPath id="clip0_2927_10599">
<rect width="24" height="24" fill="white"/>
</clipPath>
</defs>
</svg>
