<svg width="24" height="25" viewBox="0 0 24 25" fill="none" xmlns="http://www.w3.org/2000/svg">
<g clip-path="url(#clip0_2927_10655)">
<rect x="23.8008" y="24.5" width="24" height="24" rx="8" transform="rotate(180 23.8008 24.5)" fill="#5A5F6C"/>
<path d="M18.6973 9.81178C18.8849 9.99933 18.9902 10.2537 18.9902 10.5189L18.99 15.4819C18.99 15.7471 18.8847 16.0014 18.6971 16.189L15.1877 19.6982C15.0001 19.8857 14.7458 19.9911 14.4806 19.9911L9.5176 19.9909C9.25238 19.9909 8.99803 19.8855 8.8105 19.698L5.30126 16.1885C5.11373 16.001 5.00838 15.7466 5.00839 15.4814L5.00854 10.5185C5.00855 10.2533 5.11391 9.9989 5.30146 9.81137L8.81091 6.30213C8.99845 6.1146 9.25281 6.00925 9.51802 6.00926L14.481 6.00942C14.7462 6.00942 15.0006 6.11479 15.1881 6.30233L18.6973 9.81178Z" fill="#838791"/>
<path d="M14.4814 6.00879C14.7464 6.00892 15.0011 6.11443 15.1885 6.30176L18.6982 9.8125C18.8852 9.99987 18.9901 10.2539 18.9902 10.5186V15.4824C18.9901 15.7474 18.8846 16.0021 18.6973 16.1895L15.1875 19.6992C15.0002 19.8862 14.7461 19.991 14.4814 19.9912H9.51758L9.41895 19.9854C9.19016 19.9626 8.97459 19.8622 8.81055 19.6982L5.30078 16.1885L5.23438 16.1152C5.10953 15.9628 5.03218 15.7762 5.0127 15.5801L5.00781 15.4824V10.5186C5.00786 10.2866 5.08964 10.0626 5.23535 9.88477L5.30078 9.81152L8.81152 6.30176C8.99889 6.11466 9.25278 6.00892 9.51758 6.00879H14.4814ZM6.29883 10.6377V15.3604L9.6377 18.7002H14.3604L17.7002 15.3613V10.6387L14.3613 7.29883H9.63867L6.29883 10.6377ZM14.9316 13.6445H9.06738V12.3555H14.9316V13.6445Z" fill="white"/>
</g>
<defs>
<clipPath id="clip0_2927_10655">
<rect width="24" height="24" fill="white" transform="translate(0 0.5)"/>
</clipPath>
</defs>
</svg>
